<svg xmlns="http://www.w3.org/2000/svg" width="1000" height="1000" overflow="visible">
    <g class="signage-logo">
        <path fill="#bf3030" d="M15.71.665 0 3.435l1.317 47.252L0 77.588h15.488l-1.33-28.772.222-8.2 27.012 38.191 14.17-8.852-27.011-31.986L54.01 8.41 42.721.886 14.492 36.75Zm75.04 0-15.71 2.77 1.33 47.252-1.33 26.901h15.488L89.21 48.816Zm87.339.332L164.583 2.66l1.108 52.35L132.818.886l-13.284.665 1.33 49.136-1.33 26.901h13.839l-1.552-28.772V24.574l32.983 53.347 13.063-2.77-1.219-26.335Zm59.76-.886c-10.624 0-19.366 4.063-26.223 12.176-6.87 8.113-10.293 18.443-10.293 30.989 0 10.034 2.869 18.467 8.63 25.288 5.75 6.833 12.879 10.243 21.361 10.243 10.92 0 19.736-3.989 26.446-11.955 6.722-7.965 10.083-18.442 10.083-31.431 0-10.256-2.832-18.714-8.47-25.35-5.651-6.636-12.83-9.96-21.533-9.96Zm14.947 41.503c0 7.904-1.527 14.109-4.592 18.652-3.066 4.543-7.424 6.808-13.063 6.808s-10.182-2.672-13.617-8.027c-3.422-5.343-5.146-12.176-5.146-20.474 0-8.299 1.613-14.54 4.814-18.702 3.213-4.174 7.62-6.254 13.235-6.254 12.238 0 18.369 9.332 18.369 27.997Zm60.98 37.193c11.88 0 21.299-3.927 28.23-11.794 6.932-7.855 10.404-18.493 10.404-31.925 0-10.625-2.807-18.923-8.41-24.906-5.613-5.971-13.394-8.963-23.354-8.963h-29.56l1.329 49.468-1.33 26.901c9.899.813 17.458 1.22 22.69 1.22Zm2.88-65.633c7.24 0 12.497 2.179 15.772 6.525 3.287 4.358 4.925 11.031 4.925 20.03 0 9.013-1.675 15.87-5.036 20.598-3.349 4.716-7.953 7.08-13.777 7.08-2.142 0-6.303-.222-12.508-.665l-.776-17.926 1.108-35.532c1.995-.074 5.43-.11 10.293-.11Zm58.998 64.414h40.506l1.219-11.733H390.6l-.776-17.04.11-4.431h21.362l1.218-11.733H390.38l.665-19.588h24.894l1.219-11.844h-41.503l1.33 49.468Zm89.1 1.22c6.34 0 12.028-1.823 17.04-5.48 5.022-3.656 8.753-8.729 11.178-15.217l-9.184-5.318c-1.182 3.693-3.214 6.648-6.082 8.852-2.881 2.216-6.094 3.324-9.628 3.324-5.466 0-9.788-2.487-12.952-7.473-3.176-4.974-4.764-11.364-4.764-19.145 0-7.781 1.539-13.777 4.592-17.987 3.065-4.199 7.14-6.304 12.238-6.304 2.499 0 5.306.64 8.409 1.933 3.102 1.293 5.49 2.672 7.19 4.149l7.534-15.377-1.994-1.22c-1.404-.812-3.743-1.612-7.03-2.388C478.014.382 474.456 0 470.614 0c-9.812 0-18.086 4.174-24.845 12.509-6.747 8.335-10.12 18.59-10.12 30.767 0 9.96 2.795 18.369 8.409 25.239 5.602 6.857 12.509 10.292 20.696 10.292ZM528.947.664l-15.71 2.77 1.318 47.252-1.318 26.901h15.488l-1.33-28.772.222-8.2 27.012 38.191 14.171-8.852-27.012-31.986 25.46-29.56-11.29-7.523-28.23 35.864Z" class="text"/>
    </g>
</svg>
