<svg xmlns="http://www.w3.org/2000/svg" width="200" height="80">
    <path d="M1.258.055 0 .273l.105 3.782L0 6.207h1.238l-.105-2.3.02-.657 2.16 3.055 1.132-.707-2.16-2.559L4.32.672 3.418.07 1.16 2.941Zm6.004 0L6.004.273l.105 3.782-.105 2.152h1.238l-.105-2.3Zm6.984.023-1.078.133.086 4.191L10.625.07 9.562.125l.106 3.93-.105 2.152h1.105l-.121-2.3V1.964l2.637 4.27 1.046-.223-.097-2.106Zm4.781-.07c-.847 0-1.547.324-2.097.976-.551.649-.825 1.473-.825 2.477 0 .805.23 1.477.692 2.023.46.547 1.031.82 1.71.82.872 0 1.579-.32 2.114-.956.54-.637.809-1.477.809-2.516 0-.82-.227-1.496-.68-2.027a2.166 2.166 0 0 0-1.723-.797Zm1.196 3.32c0 .633-.121 1.129-.368 1.492-.246.364-.593.547-1.043.547-.453 0-.816-.215-1.09-.644-.273-.426-.413-.973-.413-1.637s.128-1.164.386-1.496c.258-.336.61-.5 1.059-.5.98 0 1.469.746 1.469 2.238Zm4.879 2.977c.949 0 1.703-.313 2.257-.946.555-.625.832-1.476.832-2.55 0-.852-.222-1.516-.671-1.993-.45-.48-1.07-.718-1.868-.718h-2.367l.11 3.957-.11 2.152c.793.066 1.399.098 1.817.098Zm.23-5.25c.578 0 1 .172 1.262.52.261.35.394.882.394 1.605 0 .718-.133 1.27-.402 1.644a1.28 1.28 0 0 1-1.102.567c-.172 0-.504-.016-1-.051l-.062-1.434.086-2.844c.16-.003.437-.007.824-.007Zm4.719 5.152h3.242l.098-.937h-2.145l-.058-1.364.007-.355h1.707L33 2.613h-1.77l.055-1.566h1.988l.098-.95h-3.32l.11 3.958Zm7.129.098c.508 0 .96-.145 1.363-.438.402-.293.7-.699.895-1.219l-.735-.425a1.39 1.39 0 0 1-.488.707c-.23.18-.485.27-.77.27-.437 0-.78-.2-1.035-.598-.254-.399-.383-.91-.383-1.536 0-.62.125-1.101.368-1.437.246-.336.574-.504.98-.504.2 0 .426.05.672.156.25.102.441.211.578.332l.602-1.23-.16-.098c-.114-.066-.301-.129-.563-.191A3.68 3.68 0 0 0 37.648 0c-.785 0-1.445.332-1.988 1-.539.668-.808 1.488-.808 2.46 0 .798.222 1.47.671 2.02.45.551 1 .825 1.657.825Zm5.136-6.25L41.06.273l.105 3.782-.105 2.152h1.238l-.106-2.3.02-.657 2.16 3.055 1.133-.707-2.16-2.559L45.379.672 44.477.07l-2.258 2.871Zm0 0" style="stroke:none;fill-rule:nonzero;fill:#bf3030;fill-opacity:1"/>
</svg>
